<svg width="22" height="22" viewBox="0 0 22 22" fill="none" xmlns="http://www.w3.org/2000/svg">
<path d="M20.625 9.24472H12.375V1.33658C12.375 0.987017 12.2301 0.651772 11.9723 0.404595C11.7144 0.157418 11.3647 0.0185547 11 0.0185547C10.6353 0.0185547 10.2856 0.157418 10.0277 0.404595C9.76987 0.651772 9.625 0.987017 9.625 1.33658V9.24472H1.375C1.01033 9.24472 0.660591 9.38358 0.402728 9.63076C0.144866 9.87794 0 10.2132 0 10.5627C0 10.9123 0.144866 11.2476 0.402728 11.4947C0.660591 11.7419 1.01033 11.8808 1.375 11.8808H9.625V19.7889C9.625 20.1385 9.76987 20.4737 10.0277 20.7209C10.2856 20.9681 10.6353 21.1069 11 21.1069C11.3647 21.1069 11.7144 20.9681 11.9723 20.7209C12.2301 20.4737 12.375 20.1385 12.375 19.7889V11.8808H20.625C20.9897 11.8808 21.3394 11.7419 21.5973 11.4947C21.8551 11.2476 22 10.9123 22 10.5627C22 10.2132 21.8551 9.87794 21.5973 9.63076C21.3394 9.38358 20.9897 9.24472 20.625 9.24472Z" fill="#0A3364"/>
</svg>
