<svg width="25" height="17" viewBox="0 0 25 17" fill="none" xmlns="http://www.w3.org/2000/svg">
<path fill-rule="evenodd" clip-rule="evenodd" d="M4.41422 9.57143L8.70711 14.171C9.09763 14.5894 9.09763 15.2678 8.70711 15.6862C8.31658 16.1046 7.68342 16.1046 7.29289 15.6862L1.29289 9.25761C0.902369 8.83919 0.902369 8.1608 1.29289 7.74238L7.29289 1.31381C7.68342 0.895395 8.31658 0.895395 8.70711 1.31381C9.09763 1.73223 9.09763 2.41062 8.70711 2.82904L4.41421 7.42857H23C23.5523 7.42857 24 7.90827 24 8.5C24 9.09173 23.5523 9.57143 23 9.57143H4.41422Z" fill="#C90000"/>
<path d="M4.41422 9.57143V9.07143H3.26361L4.04869 9.91259L4.41422 9.57143ZM8.70711 14.171L9.07263 13.8298L8.70711 14.171ZM8.70711 15.6862L9.07263 16.0273H9.07263L8.70711 15.6862ZM7.29289 15.6862L6.92737 16.0273L7.29289 15.6862ZM1.29289 9.25761L0.927366 9.59877H0.927366L1.29289 9.25761ZM1.29289 7.74238L0.927366 7.40123H0.927366L1.29289 7.74238ZM7.29289 1.31381L6.92737 0.972655V0.972655L7.29289 1.31381ZM8.70711 1.31381L9.07263 0.972655L9.07263 0.972655L8.70711 1.31381ZM8.70711 2.82904L9.07263 3.1702L9.07263 3.1702L8.70711 2.82904ZM4.41421 7.42857L4.04868 7.08741L3.2636 7.92857H4.41421V7.42857ZM4.04869 9.91259L8.34158 14.5121L9.07263 13.8298L4.77974 9.23027L4.04869 9.91259ZM8.34158 14.5121C8.55281 14.7384 8.55281 15.1187 8.34158 15.345L9.07263 16.0273C9.64245 15.4168 9.64245 14.4403 9.07263 13.8298L8.34158 14.5121ZM8.34158 15.345C8.14872 15.5517 7.85128 15.5517 7.65842 15.345L6.92737 16.0273C7.51556 16.6576 8.48444 16.6576 9.07263 16.0273L8.34158 15.345ZM7.65842 15.345L1.65842 8.91645L0.927366 9.59877L6.92737 16.0273L7.65842 15.345ZM1.65842 8.91645C1.44719 8.69014 1.44719 8.30986 1.65842 8.08354L0.927366 7.40123C0.357545 8.01175 0.357545 8.98825 0.927366 9.59877L1.65842 8.91645ZM1.65842 8.08354L7.65842 1.65497L6.92737 0.972655L0.927366 7.40123L1.65842 8.08354ZM7.65842 1.65497C7.85128 1.44834 8.14872 1.44834 8.34158 1.65497L9.07263 0.972655C8.48444 0.342448 7.51556 0.342448 6.92737 0.972655L7.65842 1.65497ZM8.34158 1.65497C8.55281 1.88129 8.55281 2.26157 8.34158 2.48788L9.07263 3.1702C9.64245 2.55968 9.64245 1.58318 9.07263 0.972655L8.34158 1.65497ZM8.34158 2.48788L4.04868 7.08741L4.77974 7.76973L9.07263 3.1702L8.34158 2.48788ZM4.41421 7.92857H23V6.92857H4.41421V7.92857ZM23 7.92857C23.2442 7.92857 23.5 8.15136 23.5 8.5H24.5C24.5 7.66518 23.8604 6.92857 23 6.92857V7.92857ZM23.5 8.5C23.5 8.84864 23.2442 9.07143 23 9.07143V10.0714C23.8604 10.0714 24.5 9.33483 24.5 8.5H23.5ZM23 9.07143H4.41422V10.0714H23V9.07143Z" fill="#C90000"/>
</svg>
