<svg width="22" height="28" viewBox="0 0 22 28" fill="none" xmlns="http://www.w3.org/2000/svg">
<path d="M11 0C4.95 0 0 4.95 0 11C0 18.425 9.625 26.8125 10.0375 27.225C10.3125 27.3625 10.725 27.5 11 27.5C11.275 27.5 11.6875 27.3625 11.9625 27.225C12.375 26.8125 22 18.425 22 11C22 4.95 17.05 0 11 0ZM11 24.3375C8.1125 21.5875 2.75 15.675 2.75 11C2.75 6.4625 6.4625 2.75 11 2.75C15.5375 2.75 19.25 6.4625 19.25 11C19.25 15.5375 13.8875 21.5875 11 24.3375ZM11 5.5C7.975 5.5 5.5 7.975 5.5 11C5.5 14.025 7.975 16.5 11 16.5C14.025 16.5 16.5 14.025 16.5 11C16.5 7.975 14.025 5.5 11 5.5ZM11 13.75C9.4875 13.75 8.25 12.5125 8.25 11C8.25 9.4875 9.4875 8.25 11 8.25C12.5125 8.25 13.75 9.4875 13.75 11C13.75 12.5125 12.5125 13.75 11 13.75Z" fill="#0A3364"/>
</svg>
