<svg width="130" height="130" viewBox="0 0 130 130" fill="none" xmlns="http://www.w3.org/2000/svg">
<path fill-rule="evenodd" clip-rule="evenodd" d="M48.75 0C21.8644 0 0 21.8644 0 48.75C0 82.5419 44.005 126.937 45.8737 128.814C46.67 129.602 47.71 130 48.75 130C49.79 130 50.83 129.602 51.6262 128.814C52.1787 128.261 56.485 123.898 62.205 117.252C58.9062 111.377 56.875 104.707 56.875 97.5C56.875 75.3594 74.6037 57.4356 96.6306 56.9644C97.1425 54.1775 97.5 51.4231 97.5 48.75C97.5 21.8644 75.6356 0 48.75 0ZM48.75 73.125C35.3112 73.125 24.375 62.1887 24.375 48.75C24.375 35.3112 35.3112 24.375 48.75 24.375C62.1887 24.375 73.125 35.3112 73.125 48.75C73.125 62.1887 62.1887 73.125 48.75 73.125Z" fill="#092A53"/>
<path opacity="0.5" fill-rule="evenodd" clip-rule="evenodd" d="M97.5 65C79.5519 65 65 79.5519 65 97.5C65 115.448 79.5519 130 97.5 130C115.448 130 130 115.448 130 97.5C130 79.5519 115.448 65 97.5 65ZM112.564 92.2513L96.3138 108.501C95.5175 109.289 94.4775 109.688 93.4375 109.688C92.3975 109.688 91.3575 109.289 90.5613 108.501L82.4363 100.376C80.8519 98.7919 80.8519 96.2163 82.4363 94.6319C84.0206 93.0475 86.5963 93.0475 88.1806 94.6319L93.4294 99.8806L106.803 86.5069C108.388 84.9225 110.963 84.9225 112.548 86.5069C114.132 88.0913 114.148 90.6588 112.564 92.2513Z" fill="#206FCE"/>
</svg>
