<svg width="317" height="38" viewBox="0 0 317 38" fill="none" xmlns="http://www.w3.org/2000/svg">
<path d="M22.03 5.275V12.295H9.34V17.875H18.7V24.58H9.34V37H0.52V5.275H22.03ZM37.4896 37.315C34.9696 37.315 32.7046 36.79 30.6946 35.74C28.7146 34.69 27.1546 33.19 26.0146 31.24C24.8746 29.29 24.3046 26.995 24.3046 24.355C24.3046 21.745 24.8746 19.465 26.0146 17.515C27.1846 15.565 28.7596 14.065 30.7396 13.015C32.7496 11.965 35.0146 11.44 37.5346 11.44C40.0546 11.44 42.3046 11.965 44.2846 13.015C46.2946 14.065 47.8696 15.565 49.0096 17.515C50.1796 19.465 50.7646 21.745 50.7646 24.355C50.7646 26.965 50.1796 29.26 49.0096 31.24C47.8696 33.19 46.2946 34.69 44.2846 35.74C42.2746 36.79 40.0096 37.315 37.4896 37.315ZM37.4896 29.665C38.7196 29.665 39.7396 29.215 40.5496 28.315C41.3896 27.385 41.8096 26.065 41.8096 24.355C41.8096 22.645 41.3896 21.34 40.5496 20.44C39.7396 19.54 38.7346 19.09 37.5346 19.09C36.3346 19.09 35.3296 19.54 34.5196 20.44C33.7096 21.34 33.3046 22.645 33.3046 24.355C33.3046 26.095 33.6946 27.415 34.4746 28.315C35.2546 29.215 36.2596 29.665 37.4896 29.665ZM66.098 37.315C63.578 37.315 61.313 36.79 59.303 35.74C57.323 34.69 55.763 33.19 54.623 31.24C53.483 29.29 52.913 26.995 52.913 24.355C52.913 21.745 53.483 19.465 54.623 17.515C55.793 15.565 57.368 14.065 59.348 13.015C61.358 11.965 63.623 11.44 66.143 11.44C68.663 11.44 70.913 11.965 72.893 13.015C74.903 14.065 76.478 15.565 77.618 17.515C78.788 19.465 79.373 21.745 79.373 24.355C79.373 26.965 78.788 29.26 77.618 31.24C76.478 33.19 74.903 34.69 72.893 35.74C70.883 36.79 68.618 37.315 66.098 37.315ZM66.098 29.665C67.328 29.665 68.348 29.215 69.158 28.315C69.998 27.385 70.418 26.065 70.418 24.355C70.418 22.645 69.998 21.34 69.158 20.44C68.348 19.54 67.343 19.09 66.143 19.09C64.943 19.09 63.938 19.54 63.128 20.44C62.318 21.34 61.913 22.645 61.913 24.355C61.913 26.095 62.303 27.415 63.083 28.315C63.863 29.215 64.868 29.665 66.098 29.665ZM81.5214 24.355C81.5214 21.745 81.9864 19.465 82.9164 17.515C83.8764 15.565 85.1814 14.065 86.8314 13.015C88.4814 11.965 90.3114 11.44 92.3214 11.44C93.9414 11.44 95.3814 11.785 96.6414 12.475C97.9314 13.135 98.9364 14.05 99.6564 15.22V3.7H108.521V37H99.6564V33.49C98.9664 34.66 97.9914 35.59 96.7314 36.28C95.4714 36.97 93.9864 37.315 92.2764 37.315C90.2664 37.315 88.4364 36.79 86.7864 35.74C85.1664 34.69 83.8764 33.19 82.9164 31.24C81.9864 29.26 81.5214 26.965 81.5214 24.355ZM99.7014 24.355C99.7014 22.735 99.2514 21.46 98.3514 20.53C97.4814 19.6 96.4014 19.135 95.1114 19.135C93.7914 19.135 92.6964 19.6 91.8264 20.53C90.9564 21.43 90.5214 22.705 90.5214 24.355C90.5214 25.975 90.9564 27.265 91.8264 28.225C92.6964 29.155 93.7914 29.62 95.1114 29.62C96.4014 29.62 97.4814 29.155 98.3514 28.225C99.2514 27.295 99.7014 26.005 99.7014 24.355ZM118.002 9.415C116.442 9.415 115.182 8.995 114.222 8.155C113.292 7.285 112.827 6.205 112.827 4.915C112.827 3.595 113.292 2.5 114.222 1.63C115.182 0.759998 116.442 0.324997 118.002 0.324997C119.532 0.324997 120.762 0.759998 121.692 1.63C122.652 2.5 123.132 3.595 123.132 4.915C123.132 6.205 122.652 7.285 121.692 8.155C120.762 8.995 119.532 9.415 118.002 9.415ZM122.367 11.755V37H113.547V11.755H122.367ZM151.51 24.085C151.51 24.775 151.465 25.465 151.375 26.155H134.68C134.77 27.535 135.145 28.57 135.805 29.26C136.495 29.92 137.365 30.25 138.415 30.25C139.885 30.25 140.935 29.59 141.565 28.27H150.97C150.58 30.01 149.815 31.57 148.675 32.95C147.565 34.3 146.155 35.365 144.445 36.145C142.735 36.925 140.845 37.315 138.775 37.315C136.285 37.315 134.065 36.79 132.115 35.74C130.195 34.69 128.68 33.19 127.57 31.24C126.49 29.29 125.95 26.995 125.95 24.355C125.95 21.715 126.49 19.435 127.57 17.515C128.65 15.565 130.15 14.065 132.07 13.015C134.02 11.965 136.255 11.44 138.775 11.44C141.265 11.44 143.47 11.95 145.39 12.97C147.31 13.99 148.81 15.46 149.89 17.38C150.97 19.27 151.51 21.505 151.51 24.085ZM142.51 21.88C142.51 20.8 142.15 19.96 141.43 19.36C140.71 18.73 139.81 18.415 138.73 18.415C137.65 18.415 136.765 18.715 136.075 19.315C135.385 19.885 134.935 20.74 134.725 21.88H142.51ZM187.628 5.275V12.295H179.168V37H170.348V12.295H161.978V5.275H187.628ZM199.711 16.21C200.701 14.77 201.901 13.63 203.311 12.79C204.721 11.95 206.236 11.53 207.856 11.53V20.935H205.381C203.461 20.935 202.036 21.31 201.106 22.06C200.176 22.81 199.711 24.115 199.711 25.975V37H190.891V11.755H199.711V16.21ZM236.848 11.755V37H227.983V33.4C227.233 34.54 226.198 35.47 224.878 36.19C223.558 36.88 222.043 37.225 220.333 37.225C217.393 37.225 215.068 36.265 213.358 34.345C211.678 32.395 210.838 29.755 210.838 26.425V11.755H219.613V25.3C219.613 26.74 219.988 27.88 220.738 28.72C221.518 29.53 222.538 29.935 223.798 29.935C225.088 29.935 226.108 29.53 226.858 28.72C227.608 27.88 227.983 26.74 227.983 25.3V11.755H236.848ZM240.428 24.355C240.428 21.745 240.968 19.465 242.048 17.515C243.128 15.565 244.628 14.065 246.548 13.015C248.498 11.965 250.718 11.44 253.208 11.44C256.418 11.44 259.118 12.325 261.308 14.095C263.498 15.835 264.908 18.28 265.538 21.43H256.178C255.638 19.78 254.588 18.955 253.028 18.955C251.918 18.955 251.033 19.42 250.373 20.35C249.743 21.25 249.428 22.585 249.428 24.355C249.428 26.125 249.743 27.475 250.373 28.405C251.033 29.335 251.918 29.8 253.028 29.8C254.618 29.8 255.668 28.975 256.178 27.325H265.538C264.908 30.445 263.498 32.89 261.308 34.66C259.118 36.43 256.418 37.315 253.208 37.315C250.718 37.315 248.498 36.79 246.548 35.74C244.628 34.69 243.128 33.19 242.048 31.24C240.968 29.29 240.428 26.995 240.428 24.355ZM284.997 37L278.022 26.65V37H269.202V3.7H278.022V21.655L284.997 11.755H295.572L285.627 24.445L295.752 37H284.997Z" fill="white"/>
<path d="M311.226 37.36C309.666 37.36 308.406 36.94 307.446 36.1C306.516 35.23 306.051 34.135 306.051 32.815C306.051 31.495 306.516 30.4 307.446 29.53C308.406 28.66 309.666 28.225 311.226 28.225C312.756 28.225 313.986 28.66 314.916 29.53C315.876 30.4 316.356 31.495 316.356 32.815C316.356 34.105 315.876 35.185 314.916 36.055C313.986 36.925 312.756 37.36 311.226 37.36Z" fill="#C90000"/>
</svg>
