<svg width="12" height="14" viewBox="0 0 12 14" fill="none" xmlns="http://www.w3.org/2000/svg">
<path fill-rule="evenodd" clip-rule="evenodd" d="M4.79262 1.97244H7.20727V1.5355C7.20727 1.43713 7.15369 1.37836 7.10979 1.37836H4.8901C4.84683 1.37836 4.79262 1.438 4.79262 1.5355V1.97244ZM8.5529 1.97244H11.3272C11.6988 1.97244 12 2.281 12 2.66162C12 3.04225 11.6988 3.35081 11.3272 3.35081H11.1557L10.6529 11.9479C10.5925 13.0648 9.77558 14 8.7566 14H3.24342C2.22544 14 1.40834 13.0658 1.34729 11.951L0.844287 3.35081H0.672813C0.301229 3.35081 0 3.04225 0 2.66162C0 2.281 0.301229 1.97244 0.672813 1.97244H3.44699V1.5355C3.44699 0.697815 4.08141 0 4.8901 0H7.10979C7.91821 0 8.5529 0.696155 8.5529 1.5355V1.97244ZM2.19233 3.35081H9.8077L9.30951 11.8686C9.286 12.3031 9.00776 12.6216 8.7566 12.6216H3.24342C2.9927 12.6216 2.71433 12.3034 2.69066 11.8712L2.19233 3.35081ZM3.97577 4.71381C3.97577 4.33318 4.277 4.02463 4.64858 4.02463C5.02017 4.02463 5.3214 4.33318 5.3214 4.71381V11.262C5.3214 11.6426 5.02017 11.9511 4.64858 11.9511C4.277 11.9511 3.97577 11.6426 3.97577 11.262V4.71381ZM7.35134 4.02463C6.97976 4.02463 6.67853 4.33318 6.67853 4.71381V11.262C6.67853 11.6426 6.97976 11.9511 7.35134 11.9511C7.72293 11.9511 8.02415 11.6426 8.02415 11.262V4.71381C8.02415 4.33318 7.72293 4.02463 7.35134 4.02463Z" fill="#206FCE"/>
</svg>
