<svg width="56" height="26" viewBox="0 0 56 26" fill="none" xmlns="http://www.w3.org/2000/svg">
<g clip-path="url(#clip0)">
<path fill-rule="evenodd" clip-rule="evenodd" d="M27 4C28.8638 4 30.4299 5.27477 30.874 7H39V9H30.874C30.4299 10.7252 28.8638 12 27 12C24.7909 12 23 10.2091 23 8C23 5.79086 24.7909 4 27 4ZM27 10C28.1046 10 29 9.10457 29 8C29 6.89543 28.1046 6 27 6C25.8954 6 25 6.89543 25 8C25 9.10457 25.8954 10 27 10Z" fill="white"/>
<path fill-rule="evenodd" clip-rule="evenodd" d="M37 21C35.1362 21 33.5701 19.7252 33.126 18H25V16H33.126C33.5701 14.2748 35.1362 13 37 13C39.2091 13 41 14.7909 41 17C41 19.2091 39.2091 21 37 21ZM37 19C38.1046 19 39 18.1046 39 17C39 15.8954 38.1046 15 37 15C35.8954 15 35 15.8954 35 17C35 18.1046 35.8954 19 37 19Z" fill="white"/>
</g>
<defs>
<clipPath id="clip0">
<rect width="48" height="26" fill="white" transform="translate(8)"/>
</clipPath>
</defs>
</svg>
