<svg width="247" height="30" viewBox="0 0 247 30" fill="none" xmlns="http://www.w3.org/2000/svg">
<path d="M17.69 4.325V9.785H7.82V14.125H15.1V19.34H7.82V29H0.96V4.325H17.69ZM29.7141 29.245C27.7541 29.245 25.9925 28.8367 24.4291 28.02C22.8891 27.2033 21.6758 26.0367 20.7891 24.52C19.9025 23.0033 19.4591 21.2183 19.4591 19.165C19.4591 17.135 19.9025 15.3617 20.7891 13.845C21.6991 12.3283 22.9241 11.1617 24.4641 10.345C26.0275 9.52833 27.7891 9.12 29.7491 9.12C31.7091 9.12 33.4591 9.52833 34.9991 10.345C36.5625 11.1617 37.7875 12.3283 38.6741 13.845C39.5841 15.3617 40.0391 17.135 40.0391 19.165C40.0391 21.195 39.5841 22.98 38.6741 24.52C37.7875 26.0367 36.5625 27.2033 34.9991 28.02C33.4358 28.8367 31.6741 29.245 29.7141 29.245ZM29.7141 23.295C30.6708 23.295 31.4641 22.945 32.0941 22.245C32.7475 21.5217 33.0741 20.495 33.0741 19.165C33.0741 17.835 32.7475 16.82 32.0941 16.12C31.4641 15.42 30.6825 15.07 29.7491 15.07C28.8158 15.07 28.0341 15.42 27.4041 16.12C26.7741 16.82 26.4591 17.835 26.4591 19.165C26.4591 20.5183 26.7625 21.545 27.3691 22.245C27.9758 22.945 28.7575 23.295 29.7141 23.295ZM51.9651 29.245C50.0051 29.245 48.2435 28.8367 46.6801 28.02C45.1401 27.2033 43.9268 26.0367 43.0401 24.52C42.1535 23.0033 41.7101 21.2183 41.7101 19.165C41.7101 17.135 42.1535 15.3617 43.0401 13.845C43.9501 12.3283 45.1751 11.1617 46.7151 10.345C48.2785 9.52833 50.0401 9.12 52.0001 9.12C53.9601 9.12 55.7101 9.52833 57.2501 10.345C58.8135 11.1617 60.0385 12.3283 60.9251 13.845C61.8351 15.3617 62.2901 17.135 62.2901 19.165C62.2901 21.195 61.8351 22.98 60.9251 24.52C60.0385 26.0367 58.8135 27.2033 57.2501 28.02C55.6868 28.8367 53.9251 29.245 51.9651 29.245ZM51.9651 23.295C52.9218 23.295 53.7151 22.945 54.3451 22.245C54.9985 21.5217 55.3251 20.495 55.3251 19.165C55.3251 17.835 54.9985 16.82 54.3451 16.12C53.7151 15.42 52.9335 15.07 52.0001 15.07C51.0668 15.07 50.2851 15.42 49.6551 16.12C49.0251 16.82 48.7101 17.835 48.7101 19.165C48.7101 20.5183 49.0135 21.545 49.6201 22.245C50.2268 22.945 51.0085 23.295 51.9651 23.295ZM63.9611 19.165C63.9611 17.135 64.3228 15.3617 65.0461 13.845C65.7928 12.3283 66.8078 11.1617 68.0911 10.345C69.3744 9.52833 70.7978 9.12 72.3611 9.12C73.6211 9.12 74.7411 9.38833 75.7211 9.925C76.7244 10.4383 77.5061 11.15 78.0661 12.06V3.1H84.9611V29H78.0661V26.27C77.5294 27.18 76.7711 27.9033 75.7911 28.44C74.8111 28.9767 73.6561 29.245 72.3261 29.245C70.7628 29.245 69.3394 28.8367 68.0561 28.02C66.7961 27.2033 65.7928 26.0367 65.0461 24.52C64.3228 22.98 63.9611 21.195 63.9611 19.165ZM78.1011 19.165C78.1011 17.905 77.7511 16.9133 77.0511 16.19C76.3744 15.4667 75.5344 15.105 74.5311 15.105C73.5044 15.105 72.6528 15.4667 71.9761 16.19C71.2994 16.89 70.9611 17.8817 70.9611 19.165C70.9611 20.425 71.2994 21.4283 71.9761 22.175C72.6528 22.8983 73.5044 23.26 74.5311 23.26C75.5344 23.26 76.3744 22.8983 77.0511 22.175C77.7511 21.4517 78.1011 20.4483 78.1011 19.165ZM92.3352 7.545C91.1218 7.545 90.1418 7.21833 89.3952 6.565C88.6718 5.88833 88.3102 5.04833 88.3102 4.045C88.3102 3.01833 88.6718 2.16667 89.3952 1.49C90.1418 0.813332 91.1218 0.474998 92.3352 0.474998C93.5252 0.474998 94.4818 0.813332 95.2052 1.49C95.9518 2.16667 96.3252 3.01833 96.3252 4.045C96.3252 5.04833 95.9518 5.88833 95.2052 6.565C94.4818 7.21833 93.5252 7.545 92.3352 7.545ZM95.7302 9.365V29H88.8702V9.365H95.7302ZM118.397 18.955C118.397 19.4917 118.362 20.0283 118.292 20.565H105.307C105.377 21.6383 105.668 22.4433 106.182 22.98C106.718 23.4933 107.395 23.75 108.212 23.75C109.355 23.75 110.172 23.2367 110.662 22.21H117.977C117.673 23.5633 117.078 24.7767 116.192 25.85C115.328 26.9 114.232 27.7283 112.902 28.335C111.572 28.9417 110.102 29.245 108.492 29.245C106.555 29.245 104.828 28.8367 103.312 28.02C101.818 27.2033 100.64 26.0367 99.7768 24.52C98.9368 23.0033 98.5168 21.2183 98.5168 19.165C98.5168 17.1117 98.9368 15.3383 99.7768 13.845C100.617 12.3283 101.783 11.1617 103.277 10.345C104.793 9.52833 106.532 9.12 108.492 9.12C110.428 9.12 112.143 9.51667 113.637 10.31C115.13 11.1033 116.297 12.2467 117.137 13.74C117.977 15.21 118.397 16.9483 118.397 18.955ZM111.397 17.24C111.397 16.4 111.117 15.7467 110.557 15.28C109.997 14.79 109.297 14.545 108.457 14.545C107.617 14.545 106.928 14.7783 106.392 15.245C105.855 15.6883 105.505 16.3533 105.342 17.24H111.397ZM146.488 4.325V9.785H139.908V29H133.048V9.785H126.538V4.325H146.488ZM155.886 12.83C156.656 11.71 157.59 10.8233 158.686 10.17C159.783 9.51667 160.961 9.19 162.221 9.19V16.505H160.296C158.803 16.505 157.695 16.7967 156.971 17.38C156.248 17.9633 155.886 18.9783 155.886 20.425V29H149.026V9.365H155.886V12.83ZM184.771 9.365V29H177.876V26.2C177.292 27.0867 176.487 27.81 175.461 28.37C174.434 28.9067 173.256 29.175 171.926 29.175C169.639 29.175 167.831 28.4283 166.501 26.935C165.194 25.4183 164.541 23.365 164.541 20.775V9.365H171.366V19.9C171.366 21.02 171.657 21.9067 172.241 22.56C172.847 23.19 173.641 23.505 174.621 23.505C175.624 23.505 176.417 23.19 177.001 22.56C177.584 21.9067 177.876 21.02 177.876 19.9V9.365H184.771ZM187.555 19.165C187.555 17.135 187.975 15.3617 188.815 13.845C189.655 12.3283 190.822 11.1617 192.315 10.345C193.832 9.52833 195.558 9.12 197.495 9.12C199.992 9.12 202.092 9.80833 203.795 11.185C205.498 12.5383 206.595 14.44 207.085 16.89H199.805C199.385 15.6067 198.568 14.965 197.355 14.965C196.492 14.965 195.803 15.3267 195.29 16.05C194.8 16.75 194.555 17.7883 194.555 19.165C194.555 20.5417 194.8 21.5917 195.29 22.315C195.803 23.0383 196.492 23.4 197.355 23.4C198.592 23.4 199.408 22.7583 199.805 21.475H207.085C206.595 23.9017 205.498 25.8033 203.795 27.18C202.092 28.5567 199.992 29.245 197.495 29.245C195.558 29.245 193.832 28.8367 192.315 28.02C190.822 27.2033 189.655 26.0367 188.815 24.52C187.975 23.0033 187.555 21.2183 187.555 19.165ZM222.22 29L216.795 20.95V29H209.935V3.1H216.795V17.065L222.22 9.365H230.445L222.71 19.235L230.585 29H222.22Z" fill="#092A53"/>
<path d="M242.62 29.28C241.407 29.28 240.427 28.9533 239.68 28.3C238.957 27.6233 238.595 26.7717 238.595 25.745C238.595 24.7183 238.957 23.8667 239.68 23.19C240.427 22.5133 241.407 22.175 242.62 22.175C243.81 22.175 244.767 22.5133 245.49 23.19C246.237 23.8667 246.61 24.7183 246.61 25.745C246.61 26.7483 246.237 27.5883 245.49 28.265C244.767 28.9417 243.81 29.28 242.62 29.28Z" fill="#C90000"/>
</svg>
